# xmcd
#
# Track frame offsets: 
#        150
#        13894
#        27878
#        41773
#        55534
#        69115
#        83502
#        97827
#        110116
#        123432
#        135783
#        147820
#        160060
#        170774
#        182116
#        192295
#        202540
#        212062
#        223443
#        232912
#        243201
#        251279
#        260521
#        270428
#
# Disc length: 3747 seconds
#
# Revision: 1
# Processed by: cddbd v1.5.2PL0 Copyright (c) Steve Scherf et al.
# Submitted via: ExactAudioCopy v0.99pb5
#
DISCID=3f0ea118
DTITLE=Leadbelly - Easy Rider
DYEAR=2005
DGENRE=Blues
TTITLE0=New York City
TTITLE1=Don't You Love Your Daddy No More?
TTITLE2=You Can't Lose-A Me Cholly
TTITLE3=Grey Goose
TTITLE4=Stew Ball
TTITLE5=Easy Rider
TTITLE6=Worried Blues
TTITLE7=Redbird
TTITLE8=Ham An' Eggs
TTITLE9=Christmas Song
TTITLE10=Ha Ha Thisaway
TTITLE11=Little Sally Walker
TTITLE12=Skip To My Lou
TTITLE13=Ol' Riley
TTITLE14=Haul Away, Joe
TTITLE15=Take This Hammer
TTITLE16=Rock Island Line
TTITLE17=Old Man
TTITLE18=Corn Bread Rough
TTITLE19=John Henry
TTITLE20=On A Monday
TTITLE21=Ain't You Glad
TTITLE22=How Long
TTITLE23=(Good Night) Irene
EXTD=
EXTT0=
EXTT1=
EXTT2=
EXTT3=
EXTT4=
EXTT5=
EXTT6=
EXTT7=
EXTT8=
EXTT9=
EXTT10=
EXTT11=
EXTT12=
EXTT13=
EXTT14=
EXTT15=
EXTT16=
EXTT17=
EXTT18=
EXTT19=
EXTT20=
EXTT21=
EXTT22=
EXTT23=
PLAYORDER=
